<?xml version="1.0" standalone="no"?>
<!DOCTYPE svg PUBLIC "-//W3C//DTD SVG 20010904//EN"
 "http://www.w3.org/TR/2001/REC-SVG-20010904/DTD/svg10.dtd">
<svg version="1.0" xmlns="http://www.w3.org/2000/svg"
 width="300.000000pt" height="101.000000pt" viewBox="0 0 300.000000 101.000000"
 preserveAspectRatio="xMidYMid meet">
<metadata>
Created by potrace 1.10, written by Peter Selinger 2001-2011
</metadata>
<g transform="translate(0.000000,101.000000) scale(0.100000,-0.100000)"
fill="#000000" stroke="none">
<path d="M2751 913 c-5 -10 -14 -38 -21 -63 -6 -25 -44 -117 -82 -205 -39 -88
-104 -245 -145 -350 -41 -104 -77 -196 -80 -202 -3 -7 2 -13 10 -13 10 0 40
63 92 198 43 108 109 268 147 356 85 193 120 296 102 296 -7 0 -17 -8 -23 -17z"/>
<path d="M1121 889 c-13 -28 -111 -465 -111 -491 0 -10 -3 -17 -7 -16 -5 2
-23 -3 -40 -11 -47 -19 -63 -9 -63 38 0 37 3 42 39 60 77 40 114 116 75 156
-52 52 -144 -79 -144 -204 0 -81 37 -109 100 -76 27 14 30 14 30 -1 0 -8 5
-14 12 -12 6 2 21 52 32 111 26 133 37 146 59 70 31 -111 98 -183 169 -183 29
0 68 26 68 46 0 18 -14 18 -30 -1 -16 -19 -53 -19 -90 0 -35 18 -84 100 -100
166 l-12 48 131 148 c72 81 131 152 131 156 0 24 -38 -11 -150 -138 -154 -175
-144 -166 -135 -130 43 173 62 271 55 279 -5 5 -13 -1 -19 -15z m-121 -305 c0
-14 -4 -34 -10 -44 -11 -20 -78 -65 -86 -58 -7 7 22 70 46 101 27 34 50 35 50
1z"/>
<path d="M915 888 c-5 -18 -55 -263 -55 -274 0 -4 -5 -3 -12 4 -24 24 -69 14
-103 -22 -34 -36 -65 -125 -65 -187 0 -73 57 -103 105 -55 l23 24 7 -25 c8
-35 31 -23 27 14 -2 17 6 71 18 119 36 154 80 366 80 391 0 24 -18 32 -25 11z
m-81 -301 c23 -36 -39 -208 -80 -224 -24 -9 -44 17 -44 58 0 54 36 145 67 169
29 23 41 22 57 -3z"/>
<path d="M1855 833 c-44 -11 -84 -70 -106 -157 -12 -49 -18 -52 -100 -47 -47
3 -151 -131 -173 -222 -11 -44 1 -67 34 -67 32 0 87 55 121 123 11 20 21 37
23 37 2 0 -1 -20 -6 -44 -5 -25 -8 -60 -6 -78 2 -27 7 -33 26 -32 27 1 27 -7
2 -89 -27 -86 -70 -127 -136 -127 -25 0 -59 8 -75 17 -36 21 -50 9 -22 -19 27
-26 118 -37 163 -18 73 30 98 92 134 323 13 87 26 160 28 162 2 1 29 5 61 7
49 4 57 2 53 -11 -15 -49 -35 -142 -41 -182 -7 -48 9 -79 40 -79 23 0 69 45
61 59 -6 9 -14 7 -31 -9 -24 -23 -45 -20 -45 5 0 8 10 59 21 115 l22 100 38 0
c28 0 39 4 39 15 0 10 -11 15 -35 15 l-35 0 6 40 c4 26 3 40 -4 40 -6 0 -16
-18 -22 -40 l-11 -40 -55 0 -56 0 7 37 c9 50 41 110 64 123 11 5 35 10 55 10
31 0 55 14 44 26 -8 7 -63 12 -83 7z m-142 -351 c-10 -74 -21 -121 -28 -119
-17 6 -17 68 -1 147 12 55 13 76 4 81 -7 4 -2 9 13 11 13 2 25 3 26 3 2 -1 -5
-56 -14 -123z m-53 103 c0 -40 -118 -215 -145 -215 -33 0 14 114 76 184 41 46
69 59 69 31z"/>
<path d="M437 610 c-47 -41 -80 -121 -81 -193 -1 -64 15 -87 60 -87 31 0 83
45 68 60 -7 7 -16 5 -29 -10 -22 -24 -48 -26 -65 -5 -29 34 25 201 73 226 18
10 23 8 35 -10 20 -30 36 -27 27 6 -12 51 -40 55 -88 13z"/>
<path d="M1405 628 c-9 -27 -55 -292 -51 -296 12 -11 26 13 36 61 13 63 53
154 82 185 13 13 33 22 51 22 39 0 30 24 -10 28 -26 3 -36 -3 -59 -35 -43 -59
-44 -59 -29 -10 7 25 11 48 8 51 -10 10 -23 7 -28 -6z"/>
<path d="M2022 615 c-56 -47 -91 -180 -68 -252 11 -34 53 -40 97 -16 36 20 36
20 31 0 -3 -14 -1 -18 9 -15 8 3 22 35 31 72 30 112 81 196 120 196 13 0 18
-7 18 -26 0 -14 14 -58 31 -97 23 -51 29 -75 22 -86 -15 -23 -45 -26 -60 -5
-16 22 -37 6 -27 -20 10 -25 39 -37 66 -27 58 22 66 76 24 159 -29 58 -33 100
-11 109 9 3 24 -2 35 -12 19 -17 20 -17 26 0 12 30 -56 62 -80 38 -4 -4 -22
-6 -41 -4 -31 2 -38 -2 -67 -43 -17 -25 -33 -45 -34 -43 -1 1 3 21 9 44 11 42
5 66 -12 47 -4 -5 -18 -63 -31 -130 -13 -68 -27 -121 -34 -121 -6 -1 -26 -7
-44 -15 -31 -12 -35 -11 -48 6 -8 11 -14 32 -14 46 0 22 8 31 39 45 80 36 125
119 86 158 -22 23 -38 21 -73 -8z m54 -20 c12 -30 -7 -65 -47 -91 -23 -14 -43
-23 -46 -21 -7 8 27 80 49 104 25 27 36 29 44 8z"/>
<path d="M301 562 c-42 -40 -71 -76 -71 -88 0 -25 59 -104 77 -104 21 0 15 18
-22 67 l-35 46 70 64 c66 61 82 83 61 83 -5 0 -41 -31 -80 -68z"/>
<path d="M576 605 c-64 -59 -94 -207 -52 -254 26 -29 49 -26 91 10 59 52 97
215 59 253 -23 24 -67 20 -98 -9z m82 -71 c-5 -62 -51 -160 -79 -169 -11 -4
-27 -1 -36 6 -37 31 11 195 65 223 41 21 55 4 50 -60z"/>
<path d="M2770 578 c0 -18 32 -65 56 -83 18 -13 17 -16 -31 -59 -27 -25 -53
-46 -57 -46 -12 0 -9 -30 2 -30 5 0 40 29 77 65 l68 64 -26 23 c-15 13 -35 35
-44 51 -18 28 -45 37 -45 15z"/>
</g>
</svg>
